<?xml version="1.0" encoding="UTF-8" standalone="no"?><svg xmlns="http://www.w3.org/2000/svg" xmlns:xlink="http://www.w3.org/1999/xlink" contentStyleType="text/css" height="559px" preserveAspectRatio="none" style="width:245px;height:559px;background:#FFFFFF;" version="1.1" viewBox="0 0 245 559" width="245px" zoomAndPan="magnify"><defs/><g><!--class ual.hmis.CocheTest--><a href="CocheTest.html" target="_top" title="CocheTest.html" xlink:actuate="onRequest" xlink:href="CocheTest.html" xlink:show="new" xlink:title="CocheTest.html" xlink:type="simple"><g id="elem_ual.hmis.CocheTest"><rect codeLine="5" fill="#F1F1F1" height="425.9844" id="ual.hmis.CocheTest" rx="2.5" ry="2.5" style="stroke:#181818;stroke-width:0.5;" width="229" x="9" y="107"/><ellipse cx="84.75" cy="127.0938" fill="#ADD1B2" rx="11" ry="11" style="stroke:#181818;stroke-width:1.0;"/><path d="M87.5156,122.9688 Q87.6719,122.75 87.8594,122.6406 Q88.0469,122.5313 88.2656,122.5313 Q88.6406,122.5313 88.875,122.7969 Q89.1094,123.0469 89.1094,123.6563 L89.1094,125.1094 Q89.1094,125.7188 88.875,125.9844 Q88.6406,126.25 88.2656,126.25 Q87.9219,126.25 87.7188,126.0469 Q87.5156,125.8594 87.4063,125.3438 Q87.3594,124.9844 87.1719,124.7969 Q86.8438,124.4219 86.2344,124.2031 Q85.625,123.9844 85,123.9844 Q84.2344,123.9844 83.5938,124.3125 Q82.9688,124.6406 82.4688,125.3906 Q81.9844,126.1406 81.9844,127.1719 L81.9844,128.2656 Q81.9844,129.5 82.875,130.3281 Q83.7656,131.1406 85.3594,131.1406 Q86.2969,131.1406 86.9531,130.8906 Q87.3438,130.7344 87.7656,130.2969 Q88.0313,130.0313 88.1719,129.9531 Q88.3281,129.875 88.5313,129.875 Q88.8594,129.875 89.1094,130.1406 Q89.375,130.3906 89.375,130.7344 Q89.375,131.0781 89.0313,131.4844 Q88.5313,132.0625 87.7344,132.3906 Q86.6563,132.8438 85.3594,132.8438 Q83.8438,132.8438 82.6406,132.2188 Q81.6563,131.7188 80.9688,130.6563 Q80.2813,129.5781 80.2813,128.2969 L80.2813,127.1406 Q80.2813,125.8125 80.8906,124.6719 Q81.5156,123.5156 82.6094,122.9063 Q83.7031,122.2813 84.9375,122.2813 Q85.6719,122.2813 86.3125,122.4531 Q86.9688,122.6094 87.5156,122.9688 Z " fill="#000000"/><text fill="#000000" font-family="sans-serif" font-size="14" lengthAdjust="spacing" textLength="69" x="105.25" y="126.5332">CocheTest</text><text fill="#000000" font-family="sans-serif" font-size="10" lengthAdjust="spacing" textLength="40" x="119.75" y="139.9902">ual.hmis</text><line style="stroke:#181818;stroke-width:0.5;" x1="10" x2="237" y1="147.1875" y2="147.1875"/><rect fill="none" height="6" style="stroke:#C82930;stroke-width:1.0;" width="6" x="17" y="158.4922"/><text fill="#000000" font-family="sans-serif" font-size="14" lengthAdjust="spacing" textLength="87" x="29" y="165.7207">coche: Coche</text><line style="stroke:#181818;stroke-width:0.5;" x1="10" x2="237" y1="172.7969" y2="172.7969"/><polygon fill="#4177AF" points="20,183.1016,16,189.1016,24,189.1016" style="stroke:#1963A0;stroke-width:1.0;"/><text fill="#000000" font-family="sans-serif" font-size="14" lengthAdjust="spacing" textLength="80" x="29" y="191.3301">setUp(): void</text><polygon fill="#4177AF" points="20,200.7109,16,206.7109,24,206.7109" style="stroke:#1963A0;stroke-width:1.0;"/><text fill="#000000" font-family="sans-serif" font-size="14" lengthAdjust="spacing" textLength="129" x="29" y="208.9395">testGetMarca(): void</text><polygon fill="#4177AF" points="20,218.3203,16,224.3203,24,224.3203" style="stroke:#1963A0;stroke-width:1.0;"/><text fill="#000000" font-family="sans-serif" font-size="14" lengthAdjust="spacing" textLength="127" x="29" y="226.5488">testSetMarca(): void</text><polygon fill="#4177AF" points="20,235.9297,16,241.9297,24,241.9297" style="stroke:#1963A0;stroke-width:1.0;"/><text fill="#000000" font-family="sans-serif" font-size="14" lengthAdjust="spacing" textLength="136" x="29" y="244.1582">testGetModelo(): void</text><polygon fill="#4177AF" points="20,253.5391,16,259.5391,24,259.5391" style="stroke:#1963A0;stroke-width:1.0;"/><text fill="#000000" font-family="sans-serif" font-size="14" lengthAdjust="spacing" textLength="134" x="29" y="261.7676">testSetModelo(): void</text><polygon fill="#4177AF" points="20,271.1484,16,277.1484,24,277.1484" style="stroke:#1963A0;stroke-width:1.0;"/><text fill="#000000" font-family="sans-serif" font-size="14" lengthAdjust="spacing" textLength="115" x="29" y="279.377">testGetAño(): void</text><polygon fill="#4177AF" points="20,288.7578,16,294.7578,24,294.7578" style="stroke:#1963A0;stroke-width:1.0;"/><text fill="#000000" font-family="sans-serif" font-size="14" lengthAdjust="spacing" textLength="113" x="29" y="296.9863">testSetAño(): void</text><polygon fill="#4177AF" points="20,306.3672,16,312.3672,24,312.3672" style="stroke:#1963A0;stroke-width:1.0;"/><text fill="#000000" font-family="sans-serif" font-size="14" lengthAdjust="spacing" textLength="130" x="29" y="314.5957">testGetPrecio(): void</text><polygon fill="#4177AF" points="20,323.9766,16,329.9766,24,329.9766" style="stroke:#1963A0;stroke-width:1.0;"/><text fill="#000000" font-family="sans-serif" font-size="14" lengthAdjust="spacing" textLength="128" x="29" y="332.2051">testSetPrecio(): void</text><polygon fill="#4177AF" points="20,341.5859,16,347.5859,24,347.5859" style="stroke:#1963A0;stroke-width:1.0;"/><text fill="#000000" font-family="sans-serif" font-size="14" lengthAdjust="spacing" textLength="121" x="29" y="349.8145">testToString(): void</text><polygon fill="#4177AF" points="20,359.1953,16,365.1953,24,365.1953" style="stroke:#1963A0;stroke-width:1.0;"/><text fill="#000000" font-family="sans-serif" font-size="14" lengthAdjust="spacing" textLength="190" x="29" y="367.4238">testConstructorDefecto(): void</text><polygon fill="#4177AF" points="20,376.8047,16,382.8047,24,382.8047" style="stroke:#1963A0;stroke-width:1.0;"/><text fill="#000000" font-family="sans-serif" font-size="14" lengthAdjust="spacing" textLength="188" x="29" y="385.0332">testEqualsConElMismo(): void</text><polygon fill="#4177AF" points="20,394.4141,16,400.4141,24,400.4141" style="stroke:#1963A0;stroke-width:1.0;"/><text fill="#000000" font-family="sans-serif" font-size="14" lengthAdjust="spacing" textLength="159" x="29" y="402.6426">testEqualsConNull(): void</text><polygon fill="#4177AF" points="20,412.0234,16,418.0234,24,418.0234" style="stroke:#1963A0;stroke-width:1.0;"/><text fill="#000000" font-family="sans-serif" font-size="14" lengthAdjust="spacing" textLength="200" x="29" y="420.252">testEqualsConOtraClase(): void</text><polygon fill="#4177AF" points="20,429.6328,16,435.6328,24,435.6328" style="stroke:#1963A0;stroke-width:1.0;"/><text fill="#000000" font-family="sans-serif" font-size="14" lengthAdjust="spacing" textLength="140" x="29" y="437.8613">testEqualsIgual(): void</text><polygon fill="#4177AF" points="20,447.2422,16,453.2422,24,453.2422" style="stroke:#1963A0;stroke-width:1.0;"/><text fill="#000000" font-family="sans-serif" font-size="14" lengthAdjust="spacing" textLength="157" x="29" y="455.4707">testEqualsDistinto(): void</text><polygon fill="#4177AF" points="20,464.8516,16,470.8516,24,470.8516" style="stroke:#1963A0;stroke-width:1.0;"/><text fill="#000000" font-family="sans-serif" font-size="14" lengthAdjust="spacing" textLength="182" x="29" y="473.0801">testEqualsDistintoAño(): void</text><polygon fill="#4177AF" points="20,482.4609,16,488.4609,24,488.4609" style="stroke:#1963A0;stroke-width:1.0;"/><text fill="#000000" font-family="sans-serif" font-size="14" lengthAdjust="spacing" textLength="197" x="29" y="490.6895">testEqualsDistintoPrecio(): void</text><polygon fill="#4177AF" points="20,500.0703,16,506.0703,24,506.0703" style="stroke:#1963A0;stroke-width:1.0;"/><text fill="#000000" font-family="sans-serif" font-size="14" lengthAdjust="spacing" textLength="196" x="29" y="508.2988">testEqualsDistintaMarca(): void</text><polygon fill="#4177AF" points="20,517.6797,16,523.6797,24,523.6797" style="stroke:#1963A0;stroke-width:1.0;"/><text fill="#000000" font-family="sans-serif" font-size="14" lengthAdjust="spacing" textLength="203" x="29" y="525.9082">testEqualsDistintoModelo(): void</text></g></a><!--class java.lang.Object--><g id="elem_java.lang.Object"><rect codeLine="29" fill="#F1F1F1" height="40.1875" id="java.lang.Object" rx="2.5" ry="2.5" style="stroke:#181818;stroke-width:0.5;" width="76" x="85.5" y="7"/><ellipse cx="100.5" cy="27.0938" fill="#ADD1B2" rx="11" ry="11" style="stroke:#181818;stroke-width:1.0;"/><path d="M103.2656,22.9688 Q103.4219,22.75 103.6094,22.6406 Q103.7969,22.5313 104.0156,22.5313 Q104.3906,22.5313 104.625,22.7969 Q104.8594,23.0469 104.8594,23.6563 L104.8594,25.1094 Q104.8594,25.7188 104.625,25.9844 Q104.3906,26.25 104.0156,26.25 Q103.6719,26.25 103.4688,26.0469 Q103.2656,25.8594 103.1563,25.3438 Q103.1094,24.9844 102.9219,24.7969 Q102.5938,24.4219 101.9844,24.2031 Q101.375,23.9844 100.75,23.9844 Q99.9844,23.9844 99.3438,24.3125 Q98.7188,24.6406 98.2188,25.3906 Q97.7344,26.1406 97.7344,27.1719 L97.7344,28.2656 Q97.7344,29.5 98.625,30.3281 Q99.5156,31.1406 101.1094,31.1406 Q102.0469,31.1406 102.7031,30.8906 Q103.0938,30.7344 103.5156,30.2969 Q103.7813,30.0313 103.9219,29.9531 Q104.0781,29.875 104.2813,29.875 Q104.6094,29.875 104.8594,30.1406 Q105.125,30.3906 105.125,30.7344 Q105.125,31.0781 104.7813,31.4844 Q104.2813,32.0625 103.4844,32.3906 Q102.4063,32.8438 101.1094,32.8438 Q99.5938,32.8438 98.3906,32.2188 Q97.4063,31.7188 96.7188,30.6563 Q96.0313,29.5781 96.0313,28.2969 L96.0313,27.1406 Q96.0313,25.8125 96.6406,24.6719 Q97.2656,23.5156 98.3594,22.9063 Q99.4531,22.2813 100.6875,22.2813 Q101.4219,22.2813 102.0625,22.4531 Q102.7188,22.6094 103.2656,22.9688 Z " fill="#000000"/><text fill="#000000" font-family="sans-serif" font-size="14" lengthAdjust="spacing" textLength="41" x="116" y="26.5332">Object</text><text fill="#000000" font-family="sans-serif" font-size="10" lengthAdjust="spacing" textLength="44" x="114.5" y="39.9902">java.lang</text></g><!--reverse link java.lang.Object to ual.hmis.CocheTest--><g id="link_java.lang.Object_ual.hmis.CocheTest"><path codeLine="31" d="M123.5,67.14 C123.5,78.64 123.5,92.09 123.5,106.69 " fill="none" id="java.lang.Object-backto-ual.hmis.CocheTest" style="stroke:#181818;stroke-width:1.0;"/><polygon fill="none" points="116.5,67.09,123.5,47.09,130.5,67.09,116.5,67.09" style="stroke:#181818;stroke-width:1.0;"/></g><text fill="#888888" font-family="sans-serif" font-size="10" lengthAdjust="spacing" textLength="184" x="23.5" y="549.3652">UMLDoclet 2.1.0, PlantUML 1.2022.14</text><!--SRC=[XPFFQi904CRlVOf1A2ZKeAKd4Q6eb4AjWdgo7hQRYLdPxAQxgz2_xzHdw8jr4ZMjagmvPBFVzvj9iZC3063HWM89sfHnd6BA37FQWD8AByY6M8G8cAJk5IA1ChIdQe8krYJdEfVCMgXrhNZ3JlkcrzSynXbQzwJsMgktOJA84s5hm2mSDa51mc9HF0UnI-Ho2UzvykngyiphG8uKwXVznJojDpgmrIByantbk4CtOeQpSdVgTRDO7QBKrS4Ucw9lVxwhOwjDYfmOvA8wrcVFzDGPeLRbRbyhwyo6KvK7626jvTpmXMfZYHxAaR39EUfn8-KPPEmCwrE3e8-xNz7T1mo4TKBvl_h0L9_mCUSxpIEIUPhbE6L9OtoMpyZuUKrL-3SWQxPbWMHgbKz8iGjsu2x9gGhTZsQpP9hshqJbq42aTRRCHmy3pIKD_dNG3bfNCA54ZbIutAAnGgjwunS0]--></g></svg>