<?xml version="1.0" encoding="UTF-8" standalone="no"?><svg xmlns="http://www.w3.org/2000/svg" xmlns:xlink="http://www.w3.org/1999/xlink" contentStyleType="text/css" height="252px" preserveAspectRatio="none" style="width:334px;height:252px;background:#FFFFFF;" version="1.1" viewBox="0 0 334 252" width="334px" zoomAndPan="magnify"><defs/><g><!--class ual.hmis.JsonReaderTest--><a href="JsonReaderTest.html" target="_top" title="JsonReaderTest.html" xlink:actuate="onRequest" xlink:href="JsonReaderTest.html" xlink:show="new" xlink:title="JsonReaderTest.html" xlink:type="simple"><g id="elem_ual.hmis.JsonReaderTest"><rect codeLine="5" fill="#F1F1F1" height="118.625" id="ual.hmis.JsonReaderTest" rx="2.5" ry="2.5" style="stroke:#181818;stroke-width:0.5;" width="318" x="9" y="107"/><ellipse cx="111.75" cy="127.0938" fill="#ADD1B2" rx="11" ry="11" style="stroke:#181818;stroke-width:1.0;"/><path d="M114.5156,122.9688 Q114.6719,122.75 114.8594,122.6406 Q115.0469,122.5313 115.2656,122.5313 Q115.6406,122.5313 115.875,122.7969 Q116.1094,123.0469 116.1094,123.6563 L116.1094,125.1094 Q116.1094,125.7188 115.875,125.9844 Q115.6406,126.25 115.2656,126.25 Q114.9219,126.25 114.7188,126.0469 Q114.5156,125.8594 114.4063,125.3438 Q114.3594,124.9844 114.1719,124.7969 Q113.8438,124.4219 113.2344,124.2031 Q112.625,123.9844 112,123.9844 Q111.2344,123.9844 110.5938,124.3125 Q109.9688,124.6406 109.4688,125.3906 Q108.9844,126.1406 108.9844,127.1719 L108.9844,128.2656 Q108.9844,129.5 109.875,130.3281 Q110.7656,131.1406 112.3594,131.1406 Q113.2969,131.1406 113.9531,130.8906 Q114.3438,130.7344 114.7656,130.2969 Q115.0313,130.0313 115.1719,129.9531 Q115.3281,129.875 115.5313,129.875 Q115.8594,129.875 116.1094,130.1406 Q116.375,130.3906 116.375,130.7344 Q116.375,131.0781 116.0313,131.4844 Q115.5313,132.0625 114.7344,132.3906 Q113.6563,132.8438 112.3594,132.8438 Q110.8438,132.8438 109.6406,132.2188 Q108.6563,131.7188 107.9688,130.6563 Q107.2813,129.5781 107.2813,128.2969 L107.2813,127.1406 Q107.2813,125.8125 107.8906,124.6719 Q108.5156,123.5156 109.6094,122.9063 Q110.7031,122.2813 111.9375,122.2813 Q112.6719,122.2813 113.3125,122.4531 Q113.9688,122.6094 114.5156,122.9688 Z " fill="#000000"/><text fill="#000000" font-family="sans-serif" font-size="14" lengthAdjust="spacing" textLength="104" x="132.25" y="126.5332">JsonReaderTest</text><text fill="#000000" font-family="sans-serif" font-size="10" lengthAdjust="spacing" textLength="40" x="164.25" y="139.9902">ual.hmis</text><line style="stroke:#181818;stroke-width:0.5;" x1="10" x2="326" y1="147.1875" y2="147.1875"/><polygon fill="#4177AF" points="20,157.4922,16,163.4922,24,163.4922" style="stroke:#1963A0;stroke-width:1.0;"/><text fill="#000000" font-family="sans-serif" font-size="14" lengthAdjust="spacing" textLength="179" x="29" y="165.7207">testLeerCochesJSON(): void</text><polygon fill="#4177AF" points="20,175.1016,16,181.1016,24,181.1016" style="stroke:#1963A0;stroke-width:1.0;"/><text fill="#000000" font-family="sans-serif" font-size="14" lengthAdjust="spacing" textLength="227" x="29" y="183.3301">testLeerCochesJSONprimero(): void</text><polygon fill="#4177AF" points="20,192.7109,16,198.7109,24,198.7109" style="stroke:#1963A0;stroke-width:1.0;"/><text fill="#000000" font-family="sans-serif" font-size="14" lengthAdjust="spacing" textLength="292" x="29" y="200.9395">testLeerCochesJSONarchivoInexistente(): void</text><polygon fill="#4177AF" points="20,210.3203,16,216.3203,24,216.3203" style="stroke:#1963A0;stroke-width:1.0;"/><text fill="#000000" font-family="sans-serif" font-size="14" lengthAdjust="spacing" textLength="217" x="29" y="218.5488">testConstructorJsonReader(): void</text></g></a><!--class java.lang.Object--><g id="elem_java.lang.Object"><rect codeLine="12" fill="#F1F1F1" height="40.1875" id="java.lang.Object" rx="2.5" ry="2.5" style="stroke:#181818;stroke-width:0.5;" width="76" x="130" y="7"/><ellipse cx="145" cy="27.0938" fill="#ADD1B2" rx="11" ry="11" style="stroke:#181818;stroke-width:1.0;"/><path d="M147.7656,22.9688 Q147.9219,22.75 148.1094,22.6406 Q148.2969,22.5313 148.5156,22.5313 Q148.8906,22.5313 149.125,22.7969 Q149.3594,23.0469 149.3594,23.6563 L149.3594,25.1094 Q149.3594,25.7188 149.125,25.9844 Q148.8906,26.25 148.5156,26.25 Q148.1719,26.25 147.9688,26.0469 Q147.7656,25.8594 147.6563,25.3438 Q147.6094,24.9844 147.4219,24.7969 Q147.0938,24.4219 146.4844,24.2031 Q145.875,23.9844 145.25,23.9844 Q144.4844,23.9844 143.8438,24.3125 Q143.2188,24.6406 142.7188,25.3906 Q142.2344,26.1406 142.2344,27.1719 L142.2344,28.2656 Q142.2344,29.5 143.125,30.3281 Q144.0156,31.1406 145.6094,31.1406 Q146.5469,31.1406 147.2031,30.8906 Q147.5938,30.7344 148.0156,30.2969 Q148.2813,30.0313 148.4219,29.9531 Q148.5781,29.875 148.7813,29.875 Q149.1094,29.875 149.3594,30.1406 Q149.625,30.3906 149.625,30.7344 Q149.625,31.0781 149.2813,31.4844 Q148.7813,32.0625 147.9844,32.3906 Q146.9063,32.8438 145.6094,32.8438 Q144.0938,32.8438 142.8906,32.2188 Q141.9063,31.7188 141.2188,30.6563 Q140.5313,29.5781 140.5313,28.2969 L140.5313,27.1406 Q140.5313,25.8125 141.1406,24.6719 Q141.7656,23.5156 142.8594,22.9063 Q143.9531,22.2813 145.1875,22.2813 Q145.9219,22.2813 146.5625,22.4531 Q147.2188,22.6094 147.7656,22.9688 Z " fill="#000000"/><text fill="#000000" font-family="sans-serif" font-size="14" lengthAdjust="spacing" textLength="41" x="160.5" y="26.5332">Object</text><text fill="#000000" font-family="sans-serif" font-size="10" lengthAdjust="spacing" textLength="44" x="159" y="39.9902">java.lang</text></g><!--reverse link java.lang.Object to ual.hmis.JsonReaderTest--><g id="link_java.lang.Object_ual.hmis.JsonReaderTest"><path codeLine="14" d="M168,67.14 C168,79.46 168,93.33 168,106.7 " fill="none" id="java.lang.Object-backto-ual.hmis.JsonReaderTest" style="stroke:#181818;stroke-width:1.0;"/><polygon fill="none" points="161,67.12,168,47.12,175,67.12,161,67.12" style="stroke:#181818;stroke-width:1.0;"/></g><text fill="#888888" font-family="sans-serif" font-size="10" lengthAdjust="spacing" textLength="184" x="68" y="242.0059">UMLDoclet 2.1.0, PlantUML 1.2022.14</text><!--SRC=[ZP5DJm8n48Rl_ee9YGaaqe3nH0WNl4XGZEW9EOpTmPPiEvjEsVZzs-toeIv1uroQUUQTZxm5012AuD6H5AXfIWK6Z1p0iwUZL0PZCm9oHNo6XQKyattgA1fEUCrrZYBGw8jzeLxtR30IzZU46OLRadZljuNEO8MvCivA0r1WbwYw76QpEb0ckdm-XzVrhYe-Oi9ZeZ1aRKX6qybLizM3actsbwO8rb7W_qWnQ6DBll3qP2MIZtIuQyXUObZfPDxtqJNf-s6B9WzBqZ-jMMA9AaV_kFRcArCRuMR8FeN-Mxlzcu_RlTNj0HRCrNDtEJvddQVFFrLTrJc1wpGj9Wh79GMnx9kjJm00]--></g></svg>