<?xml version="1.0" encoding="UTF-8" standalone="no"?><svg xmlns="http://www.w3.org/2000/svg" xmlns:xlink="http://www.w3.org/1999/xlink" contentStyleType="text/css" height="216px" preserveAspectRatio="none" style="width:213px;height:216px;background:#FFFFFF;" version="1.1" viewBox="0 0 213 216" width="213px" zoomAndPan="magnify"><defs/><g><!--class ual.hmis.MainTest--><a href="MainTest.html" target="_top" title="MainTest.html" xlink:actuate="onRequest" xlink:href="MainTest.html" xlink:show="new" xlink:title="MainTest.html" xlink:type="simple"><g id="elem_ual.hmis.MainTest"><rect codeLine="5" fill="#F1F1F1" height="83.4063" id="ual.hmis.MainTest" rx="2.5" ry="2.5" style="stroke:#181818;stroke-width:0.5;" width="197" x="9" y="107"/><ellipse cx="74.25" cy="127.0938" fill="#ADD1B2" rx="11" ry="11" style="stroke:#181818;stroke-width:1.0;"/><path d="M77.0156,122.9688 Q77.1719,122.75 77.3594,122.6406 Q77.5469,122.5313 77.7656,122.5313 Q78.1406,122.5313 78.375,122.7969 Q78.6094,123.0469 78.6094,123.6563 L78.6094,125.1094 Q78.6094,125.7188 78.375,125.9844 Q78.1406,126.25 77.7656,126.25 Q77.4219,126.25 77.2188,126.0469 Q77.0156,125.8594 76.9063,125.3438 Q76.8594,124.9844 76.6719,124.7969 Q76.3438,124.4219 75.7344,124.2031 Q75.125,123.9844 74.5,123.9844 Q73.7344,123.9844 73.0938,124.3125 Q72.4688,124.6406 71.9688,125.3906 Q71.4844,126.1406 71.4844,127.1719 L71.4844,128.2656 Q71.4844,129.5 72.375,130.3281 Q73.2656,131.1406 74.8594,131.1406 Q75.7969,131.1406 76.4531,130.8906 Q76.8438,130.7344 77.2656,130.2969 Q77.5313,130.0313 77.6719,129.9531 Q77.8281,129.875 78.0313,129.875 Q78.3594,129.875 78.6094,130.1406 Q78.875,130.3906 78.875,130.7344 Q78.875,131.0781 78.5313,131.4844 Q78.0313,132.0625 77.2344,132.3906 Q76.1563,132.8438 74.8594,132.8438 Q73.3438,132.8438 72.1406,132.2188 Q71.1563,131.7188 70.4688,130.6563 Q69.7813,129.5781 69.7813,128.2969 L69.7813,127.1406 Q69.7813,125.8125 70.3906,124.6719 Q71.0156,123.5156 72.1094,122.9063 Q73.2031,122.2813 74.4375,122.2813 Q75.1719,122.2813 75.8125,122.4531 Q76.4688,122.6094 77.0156,122.9688 Z " fill="#000000"/><text fill="#000000" font-family="sans-serif" font-size="14" lengthAdjust="spacing" textLength="58" x="94.75" y="126.5332">MainTest</text><text fill="#000000" font-family="sans-serif" font-size="10" lengthAdjust="spacing" textLength="40" x="103.75" y="139.9902">ual.hmis</text><line style="stroke:#181818;stroke-width:0.5;" x1="10" x2="205" y1="147.1875" y2="147.1875"/><polygon fill="#4177AF" points="20,157.4922,16,163.4922,24,163.4922" style="stroke:#1963A0;stroke-width:1.0;"/><text fill="#000000" font-family="sans-serif" font-size="14" lengthAdjust="spacing" textLength="97" x="29" y="165.7207">testMain(): void</text><polygon fill="#4177AF" points="20,175.1016,16,181.1016,24,181.1016" style="stroke:#1963A0;stroke-width:1.0;"/><text fill="#000000" font-family="sans-serif" font-size="14" lengthAdjust="spacing" textLength="171" x="29" y="183.3301">testConstructorMain(): void</text></g></a><!--class java.lang.Object--><g id="elem_java.lang.Object"><rect codeLine="10" fill="#F1F1F1" height="40.1875" id="java.lang.Object" rx="2.5" ry="2.5" style="stroke:#181818;stroke-width:0.5;" width="76" x="69.5" y="7"/><ellipse cx="84.5" cy="27.0938" fill="#ADD1B2" rx="11" ry="11" style="stroke:#181818;stroke-width:1.0;"/><path d="M87.2656,22.9688 Q87.4219,22.75 87.6094,22.6406 Q87.7969,22.5313 88.0156,22.5313 Q88.3906,22.5313 88.625,22.7969 Q88.8594,23.0469 88.8594,23.6563 L88.8594,25.1094 Q88.8594,25.7188 88.625,25.9844 Q88.3906,26.25 88.0156,26.25 Q87.6719,26.25 87.4688,26.0469 Q87.2656,25.8594 87.1563,25.3438 Q87.1094,24.9844 86.9219,24.7969 Q86.5938,24.4219 85.9844,24.2031 Q85.375,23.9844 84.75,23.9844 Q83.9844,23.9844 83.3438,24.3125 Q82.7188,24.6406 82.2188,25.3906 Q81.7344,26.1406 81.7344,27.1719 L81.7344,28.2656 Q81.7344,29.5 82.625,30.3281 Q83.5156,31.1406 85.1094,31.1406 Q86.0469,31.1406 86.7031,30.8906 Q87.0938,30.7344 87.5156,30.2969 Q87.7813,30.0313 87.9219,29.9531 Q88.0781,29.875 88.2813,29.875 Q88.6094,29.875 88.8594,30.1406 Q89.125,30.3906 89.125,30.7344 Q89.125,31.0781 88.7813,31.4844 Q88.2813,32.0625 87.4844,32.3906 Q86.4063,32.8438 85.1094,32.8438 Q83.5938,32.8438 82.3906,32.2188 Q81.4063,31.7188 80.7188,30.6563 Q80.0313,29.5781 80.0313,28.2969 L80.0313,27.1406 Q80.0313,25.8125 80.6406,24.6719 Q81.2656,23.5156 82.3594,22.9063 Q83.4531,22.2813 84.6875,22.2813 Q85.4219,22.2813 86.0625,22.4531 Q86.7188,22.6094 87.2656,22.9688 Z " fill="#000000"/><text fill="#000000" font-family="sans-serif" font-size="14" lengthAdjust="spacing" textLength="41" x="100" y="26.5332">Object</text><text fill="#000000" font-family="sans-serif" font-size="10" lengthAdjust="spacing" textLength="44" x="98.5" y="39.9902">java.lang</text></g><!--reverse link java.lang.Object to ual.hmis.MainTest--><g id="link_java.lang.Object_ual.hmis.MainTest"><path codeLine="12" d="M107.5,67.23 C107.5,79.84 107.5,93.83 107.5,106.56 " fill="none" id="java.lang.Object-backto-ual.hmis.MainTest" style="stroke:#181818;stroke-width:1.0;"/><polygon fill="none" points="100.5,67.2,107.5,47.2,114.5,67.2,100.5,67.2" style="stroke:#181818;stroke-width:1.0;"/></g><text fill="#888888" font-family="sans-serif" font-size="10" lengthAdjust="spacing" textLength="184" x="7.5" y="206.7871">UMLDoclet 2.1.0, PlantUML 1.2022.14</text><!--SRC=[RP1BImCn58Nt_ef3GL2meHLNfNIZIuk2kgfTN6TkdPGyXjpR0P-_tSoq8xOrc-H-vt1o4W0GLWJoB3KL_C0r9TAO46BWaooZiYM3VQrlM5bsfHnIprh5Z3jUE1B1O2hsdIVZgzcSR7XaqUUmGwFPXfofl9K1ID0FfZTYiUYFfbBlbajyTCdj-jQCM_diV88csd9VkOv1D6sAtF_8zFL_lxkNDHT_swsf8UCel7RrVYUpDMv33YccdyFXyLDsDt9GJbZ5s6vFyzkRMBZyvvTcR4ONkCyvcYbE6qvYOsxz0m00]--></g></svg>