<?xml version="1.0" encoding="UTF-8" standalone="no"?><svg xmlns="http://www.w3.org/2000/svg" xmlns:xlink="http://www.w3.org/1999/xlink" contentStyleType="text/css" height="645px" preserveAspectRatio="none" style="width:855px;height:645px;background:#FFFFFF;" version="1.1" viewBox="0 0 855 645" width="855px" zoomAndPan="magnify"><defs/><g><!--cluster ual.hmis--><g id="cluster_ual.hmis"><path d="M8.5,6 L67.5,6 A3.75,3.75 0 0 1 70,8.5 L77,29.6094 L845.5,29.6094 A2.5,2.5 0 0 1 848,32.1094 L848,616.5 A2.5,2.5 0 0 1 845.5,619 L8.5,619 A2.5,2.5 0 0 1 6,616.5 L6,8.5 A2.5,2.5 0 0 1 8.5,6 " fill="none" style="stroke:#000000;stroke-width:1.5;"/><line style="stroke:#000000;stroke-width:1.5;" x1="6" x2="77" y1="29.6094" y2="29.6094"/><text fill="#000000" font-family="sans-serif" font-size="14" font-weight="bold" lengthAdjust="spacing" textLength="58" x="10" y="22.5332">ual.hmis</text></g><!--class ual.hmis.AppTest--><a href="AppTest.html" target="_top" title="AppTest.html" xlink:actuate="onRequest" xlink:href="AppTest.html" xlink:show="new" xlink:title="AppTest.html" xlink:type="simple"><g id="elem_ual.hmis.AppTest"><rect codeLine="3" fill="#F1F1F1" height="100.8281" id="ual.hmis.AppTest" rx="2.5" ry="2.5" style="stroke:#181818;stroke-width:0.5;" width="192" x="287" y="191.5"/><ellipse cx="352.25" cy="207.5" fill="#ADD1B2" rx="11" ry="11" style="stroke:#181818;stroke-width:1.0;"/><path d="M355.0156,203.375 Q355.1719,203.1563 355.3594,203.0469 Q355.5469,202.9375 355.7656,202.9375 Q356.1406,202.9375 356.375,203.2031 Q356.6094,203.4531 356.6094,204.0625 L356.6094,205.5156 Q356.6094,206.125 356.375,206.3906 Q356.1406,206.6563 355.7656,206.6563 Q355.4219,206.6563 355.2188,206.4531 Q355.0156,206.2656 354.9063,205.75 Q354.8594,205.3906 354.6719,205.2031 Q354.3438,204.8281 353.7344,204.6094 Q353.125,204.3906 352.5,204.3906 Q351.7344,204.3906 351.0938,204.7188 Q350.4688,205.0469 349.9688,205.7969 Q349.4844,206.5469 349.4844,207.5781 L349.4844,208.6719 Q349.4844,209.9063 350.375,210.7344 Q351.2656,211.5469 352.8594,211.5469 Q353.7969,211.5469 354.4531,211.2969 Q354.8438,211.1406 355.2656,210.7031 Q355.5313,210.4375 355.6719,210.3594 Q355.8281,210.2813 356.0313,210.2813 Q356.3594,210.2813 356.6094,210.5469 Q356.875,210.7969 356.875,211.1406 Q356.875,211.4844 356.5313,211.8906 Q356.0313,212.4688 355.2344,212.7969 Q354.1563,213.25 352.8594,213.25 Q351.3438,213.25 350.1406,212.625 Q349.1563,212.125 348.4688,211.0625 Q347.7813,209.9844 347.7813,208.7031 L347.7813,207.5469 Q347.7813,206.2188 348.3906,205.0781 Q349.0156,203.9219 350.1094,203.3125 Q351.2031,202.6875 352.4375,202.6875 Q353.1719,202.6875 353.8125,202.8594 Q354.4688,203.0156 355.0156,203.375 Z " fill="#000000"/><text fill="#000000" font-family="sans-serif" font-size="14" lengthAdjust="spacing" textLength="53" x="372.75" y="213.2285">AppTest</text><line style="stroke:#181818;stroke-width:0.5;" x1="288" x2="478" y1="223.5" y2="223.5"/><line style="stroke:#181818;stroke-width:0.5;" x1="288" x2="478" y1="231.5" y2="231.5"/><polygon fill="#4177AF" points="298,241.8047,294,247.8047,302,247.8047" style="stroke:#1963A0;stroke-width:1.0;"/><text fill="#000000" font-family="sans-serif" font-size="14" lengthAdjust="spacing" textLength="156" x="307" y="250.0332">testTextoConEnie(): void</text><polygon fill="#4177AF" points="298,259.4141,294,265.4141,302,265.4141" style="stroke:#1963A0;stroke-width:1.0;"/><text fill="#000000" font-family="sans-serif" font-size="14" lengthAdjust="spacing" textLength="97" x="307" y="267.6426">testMain(): void</text><polygon fill="#4177AF" points="298,277.0234,294,283.0234,302,283.0234" style="stroke:#1963A0;stroke-width:1.0;"/><text fill="#000000" font-family="sans-serif" font-size="14" lengthAdjust="spacing" textLength="166" x="307" y="285.252">testConstructorApp(): void</text></g></a><!--class ual.hmis.CocheTest--><a href="CocheTest.html" target="_top" title="CocheTest.html" xlink:actuate="onRequest" xlink:href="CocheTest.html" xlink:show="new" xlink:title="CocheTest.html" xlink:type="simple"><g id="elem_ual.hmis.CocheTest"><rect codeLine="9" fill="#F1F1F1" height="400.1875" id="ual.hmis.CocheTest" rx="2.5" ry="2.5" style="stroke:#181818;stroke-width:0.5;" width="229" x="22.5" y="42"/><ellipse cx="98.25" cy="58" fill="#ADD1B2" rx="11" ry="11" style="stroke:#181818;stroke-width:1.0;"/><path d="M101.0156,53.875 Q101.1719,53.6563 101.3594,53.5469 Q101.5469,53.4375 101.7656,53.4375 Q102.1406,53.4375 102.375,53.7031 Q102.6094,53.9531 102.6094,54.5625 L102.6094,56.0156 Q102.6094,56.625 102.375,56.8906 Q102.1406,57.1563 101.7656,57.1563 Q101.4219,57.1563 101.2188,56.9531 Q101.0156,56.7656 100.9063,56.25 Q100.8594,55.8906 100.6719,55.7031 Q100.3438,55.3281 99.7344,55.1094 Q99.125,54.8906 98.5,54.8906 Q97.7344,54.8906 97.0938,55.2188 Q96.4688,55.5469 95.9688,56.2969 Q95.4844,57.0469 95.4844,58.0781 L95.4844,59.1719 Q95.4844,60.4063 96.375,61.2344 Q97.2656,62.0469 98.8594,62.0469 Q99.7969,62.0469 100.4531,61.7969 Q100.8438,61.6406 101.2656,61.2031 Q101.5313,60.9375 101.6719,60.8594 Q101.8281,60.7813 102.0313,60.7813 Q102.3594,60.7813 102.6094,61.0469 Q102.875,61.2969 102.875,61.6406 Q102.875,61.9844 102.5313,62.3906 Q102.0313,62.9688 101.2344,63.2969 Q100.1563,63.75 98.8594,63.75 Q97.3438,63.75 96.1406,63.125 Q95.1563,62.625 94.4688,61.5625 Q93.7813,60.4844 93.7813,59.2031 L93.7813,58.0469 Q93.7813,56.7188 94.3906,55.5781 Q95.0156,54.4219 96.1094,53.8125 Q97.2031,53.1875 98.4375,53.1875 Q99.1719,53.1875 99.8125,53.3594 Q100.4688,53.5156 101.0156,53.875 Z " fill="#000000"/><text fill="#000000" font-family="sans-serif" font-size="14" lengthAdjust="spacing" textLength="69" x="118.75" y="63.7285">CocheTest</text><line style="stroke:#181818;stroke-width:0.5;" x1="23.5" x2="250.5" y1="74" y2="74"/><line style="stroke:#181818;stroke-width:0.5;" x1="23.5" x2="250.5" y1="82" y2="82"/><polygon fill="#4177AF" points="33.5,92.3047,29.5,98.3047,37.5,98.3047" style="stroke:#1963A0;stroke-width:1.0;"/><text fill="#000000" font-family="sans-serif" font-size="14" lengthAdjust="spacing" textLength="80" x="42.5" y="100.5332">setUp(): void</text><polygon fill="#4177AF" points="33.5,109.9141,29.5,115.9141,37.5,115.9141" style="stroke:#1963A0;stroke-width:1.0;"/><text fill="#000000" font-family="sans-serif" font-size="14" lengthAdjust="spacing" textLength="129" x="42.5" y="118.1426">testGetMarca(): void</text><polygon fill="#4177AF" points="33.5,127.5234,29.5,133.5234,37.5,133.5234" style="stroke:#1963A0;stroke-width:1.0;"/><text fill="#000000" font-family="sans-serif" font-size="14" lengthAdjust="spacing" textLength="127" x="42.5" y="135.752">testSetMarca(): void</text><polygon fill="#4177AF" points="33.5,145.1328,29.5,151.1328,37.5,151.1328" style="stroke:#1963A0;stroke-width:1.0;"/><text fill="#000000" font-family="sans-serif" font-size="14" lengthAdjust="spacing" textLength="136" x="42.5" y="153.3613">testGetModelo(): void</text><polygon fill="#4177AF" points="33.5,162.7422,29.5,168.7422,37.5,168.7422" style="stroke:#1963A0;stroke-width:1.0;"/><text fill="#000000" font-family="sans-serif" font-size="14" lengthAdjust="spacing" textLength="134" x="42.5" y="170.9707">testSetModelo(): void</text><polygon fill="#4177AF" points="33.5,180.3516,29.5,186.3516,37.5,186.3516" style="stroke:#1963A0;stroke-width:1.0;"/><text fill="#000000" font-family="sans-serif" font-size="14" lengthAdjust="spacing" textLength="115" x="42.5" y="188.5801">testGetAño(): void</text><polygon fill="#4177AF" points="33.5,197.9609,29.5,203.9609,37.5,203.9609" style="stroke:#1963A0;stroke-width:1.0;"/><text fill="#000000" font-family="sans-serif" font-size="14" lengthAdjust="spacing" textLength="113" x="42.5" y="206.1895">testSetAño(): void</text><polygon fill="#4177AF" points="33.5,215.5703,29.5,221.5703,37.5,221.5703" style="stroke:#1963A0;stroke-width:1.0;"/><text fill="#000000" font-family="sans-serif" font-size="14" lengthAdjust="spacing" textLength="130" x="42.5" y="223.7988">testGetPrecio(): void</text><polygon fill="#4177AF" points="33.5,233.1797,29.5,239.1797,37.5,239.1797" style="stroke:#1963A0;stroke-width:1.0;"/><text fill="#000000" font-family="sans-serif" font-size="14" lengthAdjust="spacing" textLength="128" x="42.5" y="241.4082">testSetPrecio(): void</text><polygon fill="#4177AF" points="33.5,250.7891,29.5,256.7891,37.5,256.7891" style="stroke:#1963A0;stroke-width:1.0;"/><text fill="#000000" font-family="sans-serif" font-size="14" lengthAdjust="spacing" textLength="121" x="42.5" y="259.0176">testToString(): void</text><polygon fill="#4177AF" points="33.5,268.3984,29.5,274.3984,37.5,274.3984" style="stroke:#1963A0;stroke-width:1.0;"/><text fill="#000000" font-family="sans-serif" font-size="14" lengthAdjust="spacing" textLength="190" x="42.5" y="276.627">testConstructorDefecto(): void</text><polygon fill="#4177AF" points="33.5,286.0078,29.5,292.0078,37.5,292.0078" style="stroke:#1963A0;stroke-width:1.0;"/><text fill="#000000" font-family="sans-serif" font-size="14" lengthAdjust="spacing" textLength="188" x="42.5" y="294.2363">testEqualsConElMismo(): void</text><polygon fill="#4177AF" points="33.5,303.6172,29.5,309.6172,37.5,309.6172" style="stroke:#1963A0;stroke-width:1.0;"/><text fill="#000000" font-family="sans-serif" font-size="14" lengthAdjust="spacing" textLength="159" x="42.5" y="311.8457">testEqualsConNull(): void</text><polygon fill="#4177AF" points="33.5,321.2266,29.5,327.2266,37.5,327.2266" style="stroke:#1963A0;stroke-width:1.0;"/><text fill="#000000" font-family="sans-serif" font-size="14" lengthAdjust="spacing" textLength="200" x="42.5" y="329.4551">testEqualsConOtraClase(): void</text><polygon fill="#4177AF" points="33.5,338.8359,29.5,344.8359,37.5,344.8359" style="stroke:#1963A0;stroke-width:1.0;"/><text fill="#000000" font-family="sans-serif" font-size="14" lengthAdjust="spacing" textLength="140" x="42.5" y="347.0645">testEqualsIgual(): void</text><polygon fill="#4177AF" points="33.5,356.4453,29.5,362.4453,37.5,362.4453" style="stroke:#1963A0;stroke-width:1.0;"/><text fill="#000000" font-family="sans-serif" font-size="14" lengthAdjust="spacing" textLength="157" x="42.5" y="364.6738">testEqualsDistinto(): void</text><polygon fill="#4177AF" points="33.5,374.0547,29.5,380.0547,37.5,380.0547" style="stroke:#1963A0;stroke-width:1.0;"/><text fill="#000000" font-family="sans-serif" font-size="14" lengthAdjust="spacing" textLength="182" x="42.5" y="382.2832">testEqualsDistintoAño(): void</text><polygon fill="#4177AF" points="33.5,391.6641,29.5,397.6641,37.5,397.6641" style="stroke:#1963A0;stroke-width:1.0;"/><text fill="#000000" font-family="sans-serif" font-size="14" lengthAdjust="spacing" textLength="197" x="42.5" y="399.8926">testEqualsDistintoPrecio(): void</text><polygon fill="#4177AF" points="33.5,409.2734,29.5,415.2734,37.5,415.2734" style="stroke:#1963A0;stroke-width:1.0;"/><text fill="#000000" font-family="sans-serif" font-size="14" lengthAdjust="spacing" textLength="196" x="42.5" y="417.502">testEqualsDistintaMarca(): void</text><polygon fill="#4177AF" points="33.5,426.8828,29.5,432.8828,37.5,432.8828" style="stroke:#1963A0;stroke-width:1.0;"/><text fill="#000000" font-family="sans-serif" font-size="14" lengthAdjust="spacing" textLength="203" x="42.5" y="435.1113">testEqualsDistintoModelo(): void</text></g></a><!--class ual.hmis.JsonReaderTest--><a href="JsonReaderTest.html" target="_top" title="JsonReaderTest.html" xlink:actuate="onRequest" xlink:href="JsonReaderTest.html" xlink:show="new" xlink:title="JsonReaderTest.html" xlink:type="simple"><g id="elem_ual.hmis.JsonReaderTest"><rect codeLine="32" fill="#F1F1F1" height="118.4375" id="ual.hmis.JsonReaderTest" rx="2.5" ry="2.5" style="stroke:#181818;stroke-width:0.5;" width="318" x="514" y="183"/><ellipse cx="616.75" cy="199" fill="#ADD1B2" rx="11" ry="11" style="stroke:#181818;stroke-width:1.0;"/><path d="M619.5156,194.875 Q619.6719,194.6563 619.8594,194.5469 Q620.0469,194.4375 620.2656,194.4375 Q620.6406,194.4375 620.875,194.7031 Q621.1094,194.9531 621.1094,195.5625 L621.1094,197.0156 Q621.1094,197.625 620.875,197.8906 Q620.6406,198.1563 620.2656,198.1563 Q619.9219,198.1563 619.7188,197.9531 Q619.5156,197.7656 619.4063,197.25 Q619.3594,196.8906 619.1719,196.7031 Q618.8438,196.3281 618.2344,196.1094 Q617.625,195.8906 617,195.8906 Q616.2344,195.8906 615.5938,196.2188 Q614.9688,196.5469 614.4688,197.2969 Q613.9844,198.0469 613.9844,199.0781 L613.9844,200.1719 Q613.9844,201.4063 614.875,202.2344 Q615.7656,203.0469 617.3594,203.0469 Q618.2969,203.0469 618.9531,202.7969 Q619.3438,202.6406 619.7656,202.2031 Q620.0313,201.9375 620.1719,201.8594 Q620.3281,201.7813 620.5313,201.7813 Q620.8594,201.7813 621.1094,202.0469 Q621.375,202.2969 621.375,202.6406 Q621.375,202.9844 621.0313,203.3906 Q620.5313,203.9688 619.7344,204.2969 Q618.6563,204.75 617.3594,204.75 Q615.8438,204.75 614.6406,204.125 Q613.6563,203.625 612.9688,202.5625 Q612.2813,201.4844 612.2813,200.2031 L612.2813,199.0469 Q612.2813,197.7188 612.8906,196.5781 Q613.5156,195.4219 614.6094,194.8125 Q615.7031,194.1875 616.9375,194.1875 Q617.6719,194.1875 618.3125,194.3594 Q618.9688,194.5156 619.5156,194.875 Z " fill="#000000"/><text fill="#000000" font-family="sans-serif" font-size="14" lengthAdjust="spacing" textLength="104" x="637.25" y="204.7285">JsonReaderTest</text><line style="stroke:#181818;stroke-width:0.5;" x1="515" x2="831" y1="215" y2="215"/><line style="stroke:#181818;stroke-width:0.5;" x1="515" x2="831" y1="223" y2="223"/><polygon fill="#4177AF" points="525,233.3047,521,239.3047,529,239.3047" style="stroke:#1963A0;stroke-width:1.0;"/><text fill="#000000" font-family="sans-serif" font-size="14" lengthAdjust="spacing" textLength="179" x="534" y="241.5332">testLeerCochesJSON(): void</text><polygon fill="#4177AF" points="525,250.9141,521,256.9141,529,256.9141" style="stroke:#1963A0;stroke-width:1.0;"/><text fill="#000000" font-family="sans-serif" font-size="14" lengthAdjust="spacing" textLength="227" x="534" y="259.1426">testLeerCochesJSONprimero(): void</text><polygon fill="#4177AF" points="525,268.5234,521,274.5234,529,274.5234" style="stroke:#1963A0;stroke-width:1.0;"/><text fill="#000000" font-family="sans-serif" font-size="14" lengthAdjust="spacing" textLength="292" x="534" y="276.752">testLeerCochesJSONarchivoInexistente(): void</text><polygon fill="#4177AF" points="525,286.1328,521,292.1328,529,292.1328" style="stroke:#1963A0;stroke-width:1.0;"/><text fill="#000000" font-family="sans-serif" font-size="14" lengthAdjust="spacing" textLength="217" x="534" y="294.3613">testConstructorJsonReader(): void</text></g></a><!--class ual.hmis.MainTest--><a href="MainTest.html" target="_top" title="MainTest.html" xlink:actuate="onRequest" xlink:href="MainTest.html" xlink:show="new" xlink:title="MainTest.html" xlink:type="simple"><g id="elem_ual.hmis.MainTest"><rect codeLine="39" fill="#F1F1F1" height="83.2188" id="ual.hmis.MainTest" rx="2.5" ry="2.5" style="stroke:#181818;stroke-width:0.5;" width="197" x="284.5" y="520"/><ellipse cx="349.75" cy="536" fill="#ADD1B2" rx="11" ry="11" style="stroke:#181818;stroke-width:1.0;"/><path d="M352.5156,531.875 Q352.6719,531.6563 352.8594,531.5469 Q353.0469,531.4375 353.2656,531.4375 Q353.6406,531.4375 353.875,531.7031 Q354.1094,531.9531 354.1094,532.5625 L354.1094,534.0156 Q354.1094,534.625 353.875,534.8906 Q353.6406,535.1563 353.2656,535.1563 Q352.9219,535.1563 352.7188,534.9531 Q352.5156,534.7656 352.4063,534.25 Q352.3594,533.8906 352.1719,533.7031 Q351.8438,533.3281 351.2344,533.1094 Q350.625,532.8906 350,532.8906 Q349.2344,532.8906 348.5938,533.2188 Q347.9688,533.5469 347.4688,534.2969 Q346.9844,535.0469 346.9844,536.0781 L346.9844,537.1719 Q346.9844,538.4063 347.875,539.2344 Q348.7656,540.0469 350.3594,540.0469 Q351.2969,540.0469 351.9531,539.7969 Q352.3438,539.6406 352.7656,539.2031 Q353.0313,538.9375 353.1719,538.8594 Q353.3281,538.7813 353.5313,538.7813 Q353.8594,538.7813 354.1094,539.0469 Q354.375,539.2969 354.375,539.6406 Q354.375,539.9844 354.0313,540.3906 Q353.5313,540.9688 352.7344,541.2969 Q351.6563,541.75 350.3594,541.75 Q348.8438,541.75 347.6406,541.125 Q346.6563,540.625 345.9688,539.5625 Q345.2813,538.4844 345.2813,537.2031 L345.2813,536.0469 Q345.2813,534.7188 345.8906,533.5781 Q346.5156,532.4219 347.6094,531.8125 Q348.7031,531.1875 349.9375,531.1875 Q350.6719,531.1875 351.3125,531.3594 Q351.9688,531.5156 352.5156,531.875 Z " fill="#000000"/><text fill="#000000" font-family="sans-serif" font-size="14" lengthAdjust="spacing" textLength="58" x="370.25" y="541.7285">MainTest</text><line style="stroke:#181818;stroke-width:0.5;" x1="285.5" x2="480.5" y1="552" y2="552"/><line style="stroke:#181818;stroke-width:0.5;" x1="285.5" x2="480.5" y1="560" y2="560"/><polygon fill="#4177AF" points="295.5,570.3047,291.5,576.3047,299.5,576.3047" style="stroke:#1963A0;stroke-width:1.0;"/><text fill="#000000" font-family="sans-serif" font-size="14" lengthAdjust="spacing" textLength="97" x="304.5" y="578.5332">testMain(): void</text><polygon fill="#4177AF" points="295.5,587.9141,291.5,593.9141,299.5,593.9141" style="stroke:#1963A0;stroke-width:1.0;"/><text fill="#000000" font-family="sans-serif" font-size="14" lengthAdjust="spacing" textLength="171" x="304.5" y="596.1426">testConstructorMain(): void</text></g></a><!--class ual.hmis.Coche--><g id="elem_ual.hmis.Coche"><rect fill="#F1F1F1" height="48" id="ual.hmis.Coche" rx="2.5" ry="2.5" style="stroke:#181818;stroke-width:0.5;" width="73" x="100.5" y="537.5"/><ellipse cx="115.5" cy="553.5" fill="#ADD1B2" rx="11" ry="11" style="stroke:#181818;stroke-width:1.0;"/><path d="M118.2656,549.375 Q118.4219,549.1563 118.6094,549.0469 Q118.7969,548.9375 119.0156,548.9375 Q119.3906,548.9375 119.625,549.2031 Q119.8594,549.4531 119.8594,550.0625 L119.8594,551.5156 Q119.8594,552.125 119.625,552.3906 Q119.3906,552.6563 119.0156,552.6563 Q118.6719,552.6563 118.4688,552.4531 Q118.2656,552.2656 118.1563,551.75 Q118.1094,551.3906 117.9219,551.2031 Q117.5938,550.8281 116.9844,550.6094 Q116.375,550.3906 115.75,550.3906 Q114.9844,550.3906 114.3438,550.7188 Q113.7188,551.0469 113.2188,551.7969 Q112.7344,552.5469 112.7344,553.5781 L112.7344,554.6719 Q112.7344,555.9063 113.625,556.7344 Q114.5156,557.5469 116.1094,557.5469 Q117.0469,557.5469 117.7031,557.2969 Q118.0938,557.1406 118.5156,556.7031 Q118.7813,556.4375 118.9219,556.3594 Q119.0781,556.2813 119.2813,556.2813 Q119.6094,556.2813 119.8594,556.5469 Q120.125,556.7969 120.125,557.1406 Q120.125,557.4844 119.7813,557.8906 Q119.2813,558.4688 118.4844,558.7969 Q117.4063,559.25 116.1094,559.25 Q114.5938,559.25 113.3906,558.625 Q112.4063,558.125 111.7188,557.0625 Q111.0313,555.9844 111.0313,554.7031 L111.0313,553.5469 Q111.0313,552.2188 111.6406,551.0781 Q112.2656,549.9219 113.3594,549.3125 Q114.4531,548.6875 115.6875,548.6875 Q116.4219,548.6875 117.0625,548.8594 Q117.7188,549.0156 118.2656,549.375 Z " fill="#000000"/><text fill="#000000" font-family="sans-serif" font-size="14" lengthAdjust="spacing" textLength="41" x="129.5" y="559.2285">Coche</text><line style="stroke:#181818;stroke-width:0.5;" x1="101.5" x2="172.5" y1="569.5" y2="569.5"/><line style="stroke:#181818;stroke-width:0.5;" x1="101.5" x2="172.5" y1="577.5" y2="577.5"/></g><!--link ual.hmis.CocheTest to ual.hmis.Coche--><g id="link_ual.hmis.CocheTest_ual.hmis.Coche"><path codeLine="44" d="M137,442.27 C137,477.8 137,510.42 137,532.36 " fill="none" id="ual.hmis.CocheTest-to-ual.hmis.Coche" style="stroke:#181818;stroke-width:1.0;"/><polygon fill="#181818" points="137,537.43,141,528.43,137,532.43,133,528.43,137,537.43" style="stroke:#181818;stroke-width:1.0;"/><text fill="#000000" font-family="sans-serif" font-size="13" lengthAdjust="spacing" textLength="35" x="138" y="486.4951">coche</text></g><text fill="#888888" font-family="sans-serif" font-size="10" lengthAdjust="spacing" textLength="184" x="328.5" y="635.3809">UMLDoclet 2.1.0, PlantUML 1.2022.14</text><!--SRC=[ZPJDJW8n4CVlFCLSJ3IHZNhaO4A060XV4JWH3aqPs2RTpjeMGcBqdNm6NynPNOGLTxizRBljhpFpRsSA0614WYuL4c4dT1Gdoi5hem5vareu1-qqdQFpi5pceoZsYLwjc8IpzkvvQOu7JnqoFQFm-gO5UrBhIseab2bVvUtEsvtqPDdX1VVsDxuEoHZp27_79J4wz8kqtFKJScnMYd9Y5YGo6xH6JTL60WXRQNz-LDke1jZ2rA9KrJP2o9nctYgphNLTNTmWz-LixuNJp6NveKVA9NN8yKxh6jZ4Mz7XTC0Gsz_oDmHrbVFAX9KSkUgRABAX4o_G8f1iHTCbINLHCGD7vXd56crUDiM9YleU8jhl6dE3sMHS7bUHIwrAq59Td2N7QazzWmSMXiPZhUmxYGYVGFO2vTgFmmhLjT-hVy4pvwUdgjby_FbhWSownXafCyaMDaHPjnWDkoGrUdY8xgExMvXgOJpFmjKUhLF47hy0]--></g></svg>