<?xml version="1.0" encoding="UTF-8" standalone="no"?><svg xmlns="http://www.w3.org/2000/svg" xmlns:xlink="http://www.w3.org/1999/xlink" contentStyleType="text/css" height="489px" preserveAspectRatio="none" style="width:219px;height:489px;background:#FFFFFF;" version="1.1" viewBox="0 0 219 489" width="219px" zoomAndPan="magnify"><defs/><g><!--class ual.hmis.Coche--><a href="Coche.html" target="_top" title="Coche.html" xlink:actuate="onRequest" xlink:href="Coche.html" xlink:show="new" xlink:title="Coche.html" xlink:type="simple"><g id="elem_ual.hmis.Coche"><rect codeLine="5" fill="#F1F1F1" height="355.5469" id="ual.hmis.Coche" rx="2.5" ry="2.5" style="stroke:#181818;stroke-width:0.5;" width="205" x="7" y="107"/><ellipse cx="84.75" cy="127.0938" fill="#ADD1B2" rx="11" ry="11" style="stroke:#181818;stroke-width:1.0;"/><path d="M87.5156,122.9688 Q87.6719,122.75 87.8594,122.6406 Q88.0469,122.5313 88.2656,122.5313 Q88.6406,122.5313 88.875,122.7969 Q89.1094,123.0469 89.1094,123.6563 L89.1094,125.1094 Q89.1094,125.7188 88.875,125.9844 Q88.6406,126.25 88.2656,126.25 Q87.9219,126.25 87.7188,126.0469 Q87.5156,125.8594 87.4063,125.3438 Q87.3594,124.9844 87.1719,124.7969 Q86.8438,124.4219 86.2344,124.2031 Q85.625,123.9844 85,123.9844 Q84.2344,123.9844 83.5938,124.3125 Q82.9688,124.6406 82.4688,125.3906 Q81.9844,126.1406 81.9844,127.1719 L81.9844,128.2656 Q81.9844,129.5 82.875,130.3281 Q83.7656,131.1406 85.3594,131.1406 Q86.2969,131.1406 86.9531,130.8906 Q87.3438,130.7344 87.7656,130.2969 Q88.0313,130.0313 88.1719,129.9531 Q88.3281,129.875 88.5313,129.875 Q88.8594,129.875 89.1094,130.1406 Q89.375,130.3906 89.375,130.7344 Q89.375,131.0781 89.0313,131.4844 Q88.5313,132.0625 87.7344,132.3906 Q86.6563,132.8438 85.3594,132.8438 Q83.8438,132.8438 82.6406,132.2188 Q81.6563,131.7188 80.9688,130.6563 Q80.2813,129.5781 80.2813,128.2969 L80.2813,127.1406 Q80.2813,125.8125 80.8906,124.6719 Q81.5156,123.5156 82.6094,122.9063 Q83.7031,122.2813 84.9375,122.2813 Q85.6719,122.2813 86.3125,122.4531 Q86.9688,122.6094 87.5156,122.9688 Z " fill="#000000"/><text fill="#000000" font-family="sans-serif" font-size="14" lengthAdjust="spacing" textLength="41" x="105.25" y="126.5332">Coche</text><text fill="#000000" font-family="sans-serif" font-size="10" lengthAdjust="spacing" textLength="40" x="105.75" y="139.9902">ual.hmis</text><line style="stroke:#181818;stroke-width:0.5;" x1="8" x2="211" y1="147.1875" y2="147.1875"/><rect fill="none" height="6" style="stroke:#C82930;stroke-width:1.0;" width="6" x="15" y="158.4922"/><text fill="#000000" font-family="sans-serif" font-size="14" lengthAdjust="spacing" textLength="84" x="27" y="165.7207">marca: String</text><rect fill="none" height="6" style="stroke:#C82930;stroke-width:1.0;" width="6" x="15" y="176.1016"/><text fill="#000000" font-family="sans-serif" font-size="14" lengthAdjust="spacing" textLength="91" x="27" y="183.3301">modelo: String</text><rect fill="none" height="6" style="stroke:#C82930;stroke-width:1.0;" width="6" x="15" y="193.7109"/><text fill="#000000" font-family="sans-serif" font-size="14" lengthAdjust="spacing" textLength="47" x="27" y="200.9395">año: int</text><rect fill="none" height="6" style="stroke:#C82930;stroke-width:1.0;" width="6" x="15" y="211.3203"/><text fill="#000000" font-family="sans-serif" font-size="14" lengthAdjust="spacing" textLength="62" x="27" y="218.5488">precio: int</text><line style="stroke:#181818;stroke-width:0.5;" x1="8" x2="211" y1="225.625" y2="225.625"/><ellipse cx="18" cy="239.9297" fill="#84BE84" rx="3" ry="3" style="stroke:#038048;stroke-width:1.0;"/><text fill="#000000" font-family="sans-serif" font-size="14" lengthAdjust="spacing" textLength="51" x="27" y="244.1582">Coche()</text><ellipse cx="18" cy="257.5391" fill="#84BE84" rx="3" ry="3" style="stroke:#038048;stroke-width:1.0;"/><text fill="#000000" font-family="sans-serif" font-size="14" lengthAdjust="spacing" textLength="179" x="27" y="261.7676">Coche(String, String, int, int)</text><ellipse cx="18" cy="275.1484" fill="#84BE84" rx="3" ry="3" style="stroke:#038048;stroke-width:1.0;"/><text fill="#000000" font-family="sans-serif" font-size="14" lengthAdjust="spacing" textLength="114" x="27" y="279.377">getMarca(): String</text><ellipse cx="18" cy="292.7578" fill="#84BE84" rx="3" ry="3" style="stroke:#038048;stroke-width:1.0;"/><text fill="#000000" font-family="sans-serif" font-size="14" lengthAdjust="spacing" textLength="139" x="27" y="296.9863">setMarca(String): void</text><ellipse cx="18" cy="310.3672" fill="#84BE84" rx="3" ry="3" style="stroke:#038048;stroke-width:1.0;"/><text fill="#000000" font-family="sans-serif" font-size="14" lengthAdjust="spacing" textLength="121" x="27" y="314.5957">getModelo(): String</text><ellipse cx="18" cy="327.9766" fill="#84BE84" rx="3" ry="3" style="stroke:#038048;stroke-width:1.0;"/><text fill="#000000" font-family="sans-serif" font-size="14" lengthAdjust="spacing" textLength="146" x="27" y="332.2051">setModelo(String): void</text><ellipse cx="18" cy="345.5859" fill="#84BE84" rx="3" ry="3" style="stroke:#038048;stroke-width:1.0;"/><text fill="#000000" font-family="sans-serif" font-size="14" lengthAdjust="spacing" textLength="78" x="27" y="349.8145">getAño(): int</text><ellipse cx="18" cy="363.1953" fill="#84BE84" rx="3" ry="3" style="stroke:#038048;stroke-width:1.0;"/><text fill="#000000" font-family="sans-serif" font-size="14" lengthAdjust="spacing" textLength="103" x="27" y="367.4238">setAño(int): void</text><ellipse cx="18" cy="380.8047" fill="#84BE84" rx="3" ry="3" style="stroke:#038048;stroke-width:1.0;"/><text fill="#000000" font-family="sans-serif" font-size="14" lengthAdjust="spacing" textLength="93" x="27" y="385.0332">getPrecio(): int</text><ellipse cx="18" cy="398.4141" fill="#84BE84" rx="3" ry="3" style="stroke:#038048;stroke-width:1.0;"/><text fill="#000000" font-family="sans-serif" font-size="14" lengthAdjust="spacing" textLength="118" x="27" y="402.6426">setPrecio(int): void</text><ellipse cx="18" cy="416.0234" fill="#84BE84" rx="3" ry="3" style="stroke:#038048;stroke-width:1.0;"/><text fill="#000000" font-family="sans-serif" font-size="14" lengthAdjust="spacing" textLength="152" x="27" y="420.252">equals(Object): boolean</text><ellipse cx="18" cy="433.6328" fill="#84BE84" rx="3" ry="3" style="stroke:#038048;stroke-width:1.0;"/><text fill="#000000" font-family="sans-serif" font-size="14" lengthAdjust="spacing" textLength="98" x="27" y="437.8613">hashCode(): int</text><ellipse cx="18" cy="451.2422" fill="#84BE84" rx="3" ry="3" style="stroke:#038048;stroke-width:1.0;"/><text fill="#000000" font-family="sans-serif" font-size="14" lengthAdjust="spacing" textLength="104" x="27" y="455.4707">toString(): String</text></g></a><!--class java.lang.Object--><g id="elem_java.lang.Object"><rect codeLine="25" fill="#F1F1F1" height="40.1875" id="java.lang.Object" rx="2.5" ry="2.5" style="stroke:#181818;stroke-width:0.5;" width="76" x="71.5" y="7"/><ellipse cx="86.5" cy="27.0938" fill="#ADD1B2" rx="11" ry="11" style="stroke:#181818;stroke-width:1.0;"/><path d="M89.2656,22.9688 Q89.4219,22.75 89.6094,22.6406 Q89.7969,22.5313 90.0156,22.5313 Q90.3906,22.5313 90.625,22.7969 Q90.8594,23.0469 90.8594,23.6563 L90.8594,25.1094 Q90.8594,25.7188 90.625,25.9844 Q90.3906,26.25 90.0156,26.25 Q89.6719,26.25 89.4688,26.0469 Q89.2656,25.8594 89.1563,25.3438 Q89.1094,24.9844 88.9219,24.7969 Q88.5938,24.4219 87.9844,24.2031 Q87.375,23.9844 86.75,23.9844 Q85.9844,23.9844 85.3438,24.3125 Q84.7188,24.6406 84.2188,25.3906 Q83.7344,26.1406 83.7344,27.1719 L83.7344,28.2656 Q83.7344,29.5 84.625,30.3281 Q85.5156,31.1406 87.1094,31.1406 Q88.0469,31.1406 88.7031,30.8906 Q89.0938,30.7344 89.5156,30.2969 Q89.7813,30.0313 89.9219,29.9531 Q90.0781,29.875 90.2813,29.875 Q90.6094,29.875 90.8594,30.1406 Q91.125,30.3906 91.125,30.7344 Q91.125,31.0781 90.7813,31.4844 Q90.2813,32.0625 89.4844,32.3906 Q88.4063,32.8438 87.1094,32.8438 Q85.5938,32.8438 84.3906,32.2188 Q83.4063,31.7188 82.7188,30.6563 Q82.0313,29.5781 82.0313,28.2969 L82.0313,27.1406 Q82.0313,25.8125 82.6406,24.6719 Q83.2656,23.5156 84.3594,22.9063 Q85.4531,22.2813 86.6875,22.2813 Q87.4219,22.2813 88.0625,22.4531 Q88.7188,22.6094 89.2656,22.9688 Z " fill="#000000"/><text fill="#000000" font-family="sans-serif" font-size="14" lengthAdjust="spacing" textLength="41" x="102" y="26.5332">Object</text><text fill="#000000" font-family="sans-serif" font-size="10" lengthAdjust="spacing" textLength="44" x="100.5" y="39.9902">java.lang</text></g><!--reverse link java.lang.Object to ual.hmis.Coche--><g id="link_java.lang.Object_ual.hmis.Coche"><path codeLine="27" d="M109.5,67.41 C109.5,78.93 109.5,92.34 109.5,106.73 " fill="none" id="java.lang.Object-backto-ual.hmis.Coche" style="stroke:#181818;stroke-width:1.0;"/><polygon fill="none" points="102.5,67.24,109.5,47.24,116.5,67.24,102.5,67.24" style="stroke:#181818;stroke-width:1.0;"/></g><text fill="#888888" font-family="sans-serif" font-size="10" lengthAdjust="spacing" textLength="184" x="10.5" y="478.9277">UMLDoclet 2.1.0, PlantUML 1.2022.14</text><!--SRC=[TPBDQW8n4CVlVOf1AAoeGKjF8aAnnqe5wSbw6BEZYMIJRP8A_NgeFaDVhDdi-hMkUyWmlvd_VB030E38WyQCN8wSvfIZHMyiQAFf9eH1o9I0ijn_m5gIIbsTPkI52JXohj0vQ8sS_AJXu7uyCLpGgwxy_lWT5HEPT2r01tk7nInOBA9bmcTgkOIlMB3uUXbQZaEOUolrvWIRb9IvvFZt6wZK_eXoIrpMO2UsIzfrK9Rhmju6JNnE4ZVafyLCIVkYUyVjOsKWPEoCJC-rSV1huZ9uNVqGrYkqPxkuYXTpDcXcSVycLHLfqj5R-4CkULvjYHVHbJ6AK1yJ13en2UDUrFMc7B-sua_paPGDJgvaYpja2lKcdid1OsLYMQHEOVJTwzLEgcf7sfE5jJ65UPa-FHgkmjNViG7hTs4MYlX0uNP7racZa_O_]--></g></svg>