<?xml version="1.0" encoding="UTF-8" standalone="no"?><svg xmlns="http://www.w3.org/2000/svg" xmlns:xlink="http://www.w3.org/1999/xlink" contentStyleType="text/css" height="557px" preserveAspectRatio="none" style="width:463px;height:557px;background:#FFFFFF;" version="1.1" viewBox="0 0 463 557" width="463px" zoomAndPan="magnify"><defs/><g><!--cluster ual.hmis--><g id="cluster_ual.hmis"><path d="M8.5,6 L67.5,6 A3.75,3.75 0 0 1 70,8.5 L77,29.6094 L453.5,29.6094 A2.5,2.5 0 0 1 456,32.1094 L456,528.5 A2.5,2.5 0 0 1 453.5,531 L8.5,531 A2.5,2.5 0 0 1 6,528.5 L6,8.5 A2.5,2.5 0 0 1 8.5,6 " fill="none" style="stroke:#000000;stroke-width:1.5;"/><line style="stroke:#000000;stroke-width:1.5;" x1="6" x2="77" y1="29.6094" y2="29.6094"/><text fill="#000000" font-family="sans-serif" font-size="14" font-weight="bold" lengthAdjust="spacing" textLength="58" x="10" y="22.5332">ual.hmis</text></g><!--class ual.hmis.App--><a href="App.html" target="_top" title="App.html" xlink:actuate="onRequest" xlink:href="App.html" xlink:show="new" xlink:title="App.html" xlink:type="simple"><g id="elem_ual.hmis.App"><rect codeLine="3" fill="#F1F1F1" height="65.6094" id="ual.hmis.App" rx="2.5" ry="2.5" style="stroke:#181818;stroke-width:0.5;" width="145" x="54.5" y="182.5"/><ellipse cx="110.25" cy="198.5" fill="#ADD1B2" rx="11" ry="11" style="stroke:#181818;stroke-width:1.0;"/><path d="M113.0156,194.375 Q113.1719,194.1563 113.3594,194.0469 Q113.5469,193.9375 113.7656,193.9375 Q114.1406,193.9375 114.375,194.2031 Q114.6094,194.4531 114.6094,195.0625 L114.6094,196.5156 Q114.6094,197.125 114.375,197.3906 Q114.1406,197.6563 113.7656,197.6563 Q113.4219,197.6563 113.2188,197.4531 Q113.0156,197.2656 112.9063,196.75 Q112.8594,196.3906 112.6719,196.2031 Q112.3438,195.8281 111.7344,195.6094 Q111.125,195.3906 110.5,195.3906 Q109.7344,195.3906 109.0938,195.7188 Q108.4688,196.0469 107.9688,196.7969 Q107.4844,197.5469 107.4844,198.5781 L107.4844,199.6719 Q107.4844,200.9063 108.375,201.7344 Q109.2656,202.5469 110.8594,202.5469 Q111.7969,202.5469 112.4531,202.2969 Q112.8438,202.1406 113.2656,201.7031 Q113.5313,201.4375 113.6719,201.3594 Q113.8281,201.2813 114.0313,201.2813 Q114.3594,201.2813 114.6094,201.5469 Q114.875,201.7969 114.875,202.1406 Q114.875,202.4844 114.5313,202.8906 Q114.0313,203.4688 113.2344,203.7969 Q112.1563,204.25 110.8594,204.25 Q109.3438,204.25 108.1406,203.625 Q107.1563,203.125 106.4688,202.0625 Q105.7813,200.9844 105.7813,199.7031 L105.7813,198.5469 Q105.7813,197.2188 106.3906,196.0781 Q107.0156,194.9219 108.1094,194.3125 Q109.2031,193.6875 110.4375,193.6875 Q111.1719,193.6875 111.8125,193.8594 Q112.4688,194.0156 113.0156,194.375 Z " fill="#000000"/><text fill="#000000" font-family="sans-serif" font-size="14" lengthAdjust="spacing" textLength="25" x="130.75" y="204.2285">App</text><line style="stroke:#181818;stroke-width:0.5;" x1="55.5" x2="198.5" y1="214.5" y2="214.5"/><line style="stroke:#181818;stroke-width:0.5;" x1="55.5" x2="198.5" y1="222.5" y2="222.5"/><ellipse cx="65.5" cy="236.8047" fill="#84BE84" rx="3" ry="3" style="stroke:#038048;stroke-width:1.0;"/><text fill="#000000" font-family="sans-serif" font-size="14" lengthAdjust="spacing" text-decoration="underline" textLength="119" x="74.5" y="241.0332">main(String[]): void</text></g></a><!--class ual.hmis.Coche--><a href="Coche.html" target="_top" title="Coche.html" xlink:actuate="onRequest" xlink:href="Coche.html" xlink:show="new" xlink:title="Coche.html" xlink:type="simple"><g id="elem_ual.hmis.Coche"><rect codeLine="7" fill="#F1F1F1" height="347.3594" id="ual.hmis.Coche" rx="2.5" ry="2.5" style="stroke:#181818;stroke-width:0.5;" width="205" x="234.5" y="42"/><ellipse cx="312.25" cy="58" fill="#ADD1B2" rx="11" ry="11" style="stroke:#181818;stroke-width:1.0;"/><path d="M315.0156,53.875 Q315.1719,53.6563 315.3594,53.5469 Q315.5469,53.4375 315.7656,53.4375 Q316.1406,53.4375 316.375,53.7031 Q316.6094,53.9531 316.6094,54.5625 L316.6094,56.0156 Q316.6094,56.625 316.375,56.8906 Q316.1406,57.1563 315.7656,57.1563 Q315.4219,57.1563 315.2188,56.9531 Q315.0156,56.7656 314.9063,56.25 Q314.8594,55.8906 314.6719,55.7031 Q314.3438,55.3281 313.7344,55.1094 Q313.125,54.8906 312.5,54.8906 Q311.7344,54.8906 311.0938,55.2188 Q310.4688,55.5469 309.9688,56.2969 Q309.4844,57.0469 309.4844,58.0781 L309.4844,59.1719 Q309.4844,60.4063 310.375,61.2344 Q311.2656,62.0469 312.8594,62.0469 Q313.7969,62.0469 314.4531,61.7969 Q314.8438,61.6406 315.2656,61.2031 Q315.5313,60.9375 315.6719,60.8594 Q315.8281,60.7813 316.0313,60.7813 Q316.3594,60.7813 316.6094,61.0469 Q316.875,61.2969 316.875,61.6406 Q316.875,61.9844 316.5313,62.3906 Q316.0313,62.9688 315.2344,63.2969 Q314.1563,63.75 312.8594,63.75 Q311.3438,63.75 310.1406,63.125 Q309.1563,62.625 308.4688,61.5625 Q307.7813,60.4844 307.7813,59.2031 L307.7813,58.0469 Q307.7813,56.7188 308.3906,55.5781 Q309.0156,54.4219 310.1094,53.8125 Q311.2031,53.1875 312.4375,53.1875 Q313.1719,53.1875 313.8125,53.3594 Q314.4688,53.5156 315.0156,53.875 Z " fill="#000000"/><text fill="#000000" font-family="sans-serif" font-size="14" lengthAdjust="spacing" textLength="41" x="332.75" y="63.7285">Coche</text><line style="stroke:#181818;stroke-width:0.5;" x1="235.5" x2="438.5" y1="74" y2="74"/><rect fill="none" height="6" style="stroke:#C82930;stroke-width:1.0;" width="6" x="242.5" y="85.3047"/><text fill="#000000" font-family="sans-serif" font-size="14" lengthAdjust="spacing" textLength="84" x="254.5" y="92.5332">marca: String</text><rect fill="none" height="6" style="stroke:#C82930;stroke-width:1.0;" width="6" x="242.5" y="102.9141"/><text fill="#000000" font-family="sans-serif" font-size="14" lengthAdjust="spacing" textLength="91" x="254.5" y="110.1426">modelo: String</text><rect fill="none" height="6" style="stroke:#C82930;stroke-width:1.0;" width="6" x="242.5" y="120.5234"/><text fill="#000000" font-family="sans-serif" font-size="14" lengthAdjust="spacing" textLength="47" x="254.5" y="127.752">año: int</text><rect fill="none" height="6" style="stroke:#C82930;stroke-width:1.0;" width="6" x="242.5" y="138.1328"/><text fill="#000000" font-family="sans-serif" font-size="14" lengthAdjust="spacing" textLength="62" x="254.5" y="145.3613">precio: int</text><line style="stroke:#181818;stroke-width:0.5;" x1="235.5" x2="438.5" y1="152.4375" y2="152.4375"/><ellipse cx="245.5" cy="166.7422" fill="#84BE84" rx="3" ry="3" style="stroke:#038048;stroke-width:1.0;"/><text fill="#000000" font-family="sans-serif" font-size="14" lengthAdjust="spacing" textLength="51" x="254.5" y="170.9707">Coche()</text><ellipse cx="245.5" cy="184.3516" fill="#84BE84" rx="3" ry="3" style="stroke:#038048;stroke-width:1.0;"/><text fill="#000000" font-family="sans-serif" font-size="14" lengthAdjust="spacing" textLength="179" x="254.5" y="188.5801">Coche(String, String, int, int)</text><ellipse cx="245.5" cy="201.9609" fill="#84BE84" rx="3" ry="3" style="stroke:#038048;stroke-width:1.0;"/><text fill="#000000" font-family="sans-serif" font-size="14" lengthAdjust="spacing" textLength="114" x="254.5" y="206.1895">getMarca(): String</text><ellipse cx="245.5" cy="219.5703" fill="#84BE84" rx="3" ry="3" style="stroke:#038048;stroke-width:1.0;"/><text fill="#000000" font-family="sans-serif" font-size="14" lengthAdjust="spacing" textLength="139" x="254.5" y="223.7988">setMarca(String): void</text><ellipse cx="245.5" cy="237.1797" fill="#84BE84" rx="3" ry="3" style="stroke:#038048;stroke-width:1.0;"/><text fill="#000000" font-family="sans-serif" font-size="14" lengthAdjust="spacing" textLength="121" x="254.5" y="241.4082">getModelo(): String</text><ellipse cx="245.5" cy="254.7891" fill="#84BE84" rx="3" ry="3" style="stroke:#038048;stroke-width:1.0;"/><text fill="#000000" font-family="sans-serif" font-size="14" lengthAdjust="spacing" textLength="146" x="254.5" y="259.0176">setModelo(String): void</text><ellipse cx="245.5" cy="272.3984" fill="#84BE84" rx="3" ry="3" style="stroke:#038048;stroke-width:1.0;"/><text fill="#000000" font-family="sans-serif" font-size="14" lengthAdjust="spacing" textLength="78" x="254.5" y="276.627">getAño(): int</text><ellipse cx="245.5" cy="290.0078" fill="#84BE84" rx="3" ry="3" style="stroke:#038048;stroke-width:1.0;"/><text fill="#000000" font-family="sans-serif" font-size="14" lengthAdjust="spacing" textLength="103" x="254.5" y="294.2363">setAño(int): void</text><ellipse cx="245.5" cy="307.6172" fill="#84BE84" rx="3" ry="3" style="stroke:#038048;stroke-width:1.0;"/><text fill="#000000" font-family="sans-serif" font-size="14" lengthAdjust="spacing" textLength="93" x="254.5" y="311.8457">getPrecio(): int</text><ellipse cx="245.5" cy="325.2266" fill="#84BE84" rx="3" ry="3" style="stroke:#038048;stroke-width:1.0;"/><text fill="#000000" font-family="sans-serif" font-size="14" lengthAdjust="spacing" textLength="118" x="254.5" y="329.4551">setPrecio(int): void</text><ellipse cx="245.5" cy="342.8359" fill="#84BE84" rx="3" ry="3" style="stroke:#038048;stroke-width:1.0;"/><text fill="#000000" font-family="sans-serif" font-size="14" lengthAdjust="spacing" textLength="152" x="254.5" y="347.0645">equals(Object): boolean</text><ellipse cx="245.5" cy="360.4453" fill="#84BE84" rx="3" ry="3" style="stroke:#038048;stroke-width:1.0;"/><text fill="#000000" font-family="sans-serif" font-size="14" lengthAdjust="spacing" textLength="98" x="254.5" y="364.6738">hashCode(): int</text><ellipse cx="245.5" cy="378.0547" fill="#84BE84" rx="3" ry="3" style="stroke:#038048;stroke-width:1.0;"/><text fill="#000000" font-family="sans-serif" font-size="14" lengthAdjust="spacing" textLength="104" x="254.5" y="382.2832">toString(): String</text></g></a><!--class ual.hmis.JsonReader--><a href="JsonReader.html" target="_top" title="JsonReader.html" xlink:actuate="onRequest" xlink:href="JsonReader.html" xlink:show="new" xlink:title="JsonReader.html" xlink:type="simple"><g id="elem_ual.hmis.JsonReader"><rect codeLine="27" fill="#F1F1F1" height="65.6094" id="ual.hmis.JsonReader" rx="2.5" ry="2.5" style="stroke:#181818;stroke-width:0.5;" width="237" x="22.5" y="449"/><ellipse cx="98.75" cy="465" fill="#ADD1B2" rx="11" ry="11" style="stroke:#181818;stroke-width:1.0;"/><path d="M101.5156,460.875 Q101.6719,460.6563 101.8594,460.5469 Q102.0469,460.4375 102.2656,460.4375 Q102.6406,460.4375 102.875,460.7031 Q103.1094,460.9531 103.1094,461.5625 L103.1094,463.0156 Q103.1094,463.625 102.875,463.8906 Q102.6406,464.1563 102.2656,464.1563 Q101.9219,464.1563 101.7188,463.9531 Q101.5156,463.7656 101.4063,463.25 Q101.3594,462.8906 101.1719,462.7031 Q100.8438,462.3281 100.2344,462.1094 Q99.625,461.8906 99,461.8906 Q98.2344,461.8906 97.5938,462.2188 Q96.9688,462.5469 96.4688,463.2969 Q95.9844,464.0469 95.9844,465.0781 L95.9844,466.1719 Q95.9844,467.4063 96.875,468.2344 Q97.7656,469.0469 99.3594,469.0469 Q100.2969,469.0469 100.9531,468.7969 Q101.3438,468.6406 101.7656,468.2031 Q102.0313,467.9375 102.1719,467.8594 Q102.3281,467.7813 102.5313,467.7813 Q102.8594,467.7813 103.1094,468.0469 Q103.375,468.2969 103.375,468.6406 Q103.375,468.9844 103.0313,469.3906 Q102.5313,469.9688 101.7344,470.2969 Q100.6563,470.75 99.3594,470.75 Q97.8438,470.75 96.6406,470.125 Q95.6563,469.625 94.9688,468.5625 Q94.2813,467.4844 94.2813,466.2031 L94.2813,465.0469 Q94.2813,463.7188 94.8906,462.5781 Q95.5156,461.4219 96.6094,460.8125 Q97.7031,460.1875 98.9375,460.1875 Q99.6719,460.1875 100.3125,460.3594 Q100.9688,460.5156 101.5156,460.875 Z " fill="#000000"/><text fill="#000000" font-family="sans-serif" font-size="14" lengthAdjust="spacing" textLength="76" x="119.25" y="470.7285">JsonReader</text><line style="stroke:#181818;stroke-width:0.5;" x1="23.5" x2="258.5" y1="481" y2="481"/><line style="stroke:#181818;stroke-width:0.5;" x1="23.5" x2="258.5" y1="489" y2="489"/><ellipse cx="33.5" cy="503.3047" fill="#84BE84" rx="3" ry="3" style="stroke:#038048;stroke-width:1.0;"/><text fill="#000000" font-family="sans-serif" font-size="14" lengthAdjust="spacing" text-decoration="underline" textLength="211" x="42.5" y="507.5332">leerCochesJSON(String): Coche[]</text></g></a><!--class ual.hmis.Main--><a href="Main.html" target="_top" title="Main.html" xlink:actuate="onRequest" xlink:href="Main.html" xlink:show="new" xlink:title="Main.html" xlink:type="simple"><g id="elem_ual.hmis.Main"><rect codeLine="31" fill="#F1F1F1" height="65.6094" id="ual.hmis.Main" rx="2.5" ry="2.5" style="stroke:#181818;stroke-width:0.5;" width="145" x="294.5" y="449"/><ellipse cx="347.75" cy="465" fill="#ADD1B2" rx="11" ry="11" style="stroke:#181818;stroke-width:1.0;"/><path d="M350.5156,460.875 Q350.6719,460.6563 350.8594,460.5469 Q351.0469,460.4375 351.2656,460.4375 Q351.6406,460.4375 351.875,460.7031 Q352.1094,460.9531 352.1094,461.5625 L352.1094,463.0156 Q352.1094,463.625 351.875,463.8906 Q351.6406,464.1563 351.2656,464.1563 Q350.9219,464.1563 350.7188,463.9531 Q350.5156,463.7656 350.4063,463.25 Q350.3594,462.8906 350.1719,462.7031 Q349.8438,462.3281 349.2344,462.1094 Q348.625,461.8906 348,461.8906 Q347.2344,461.8906 346.5938,462.2188 Q345.9688,462.5469 345.4688,463.2969 Q344.9844,464.0469 344.9844,465.0781 L344.9844,466.1719 Q344.9844,467.4063 345.875,468.2344 Q346.7656,469.0469 348.3594,469.0469 Q349.2969,469.0469 349.9531,468.7969 Q350.3438,468.6406 350.7656,468.2031 Q351.0313,467.9375 351.1719,467.8594 Q351.3281,467.7813 351.5313,467.7813 Q351.8594,467.7813 352.1094,468.0469 Q352.375,468.2969 352.375,468.6406 Q352.375,468.9844 352.0313,469.3906 Q351.5313,469.9688 350.7344,470.2969 Q349.6563,470.75 348.3594,470.75 Q346.8438,470.75 345.6406,470.125 Q344.6563,469.625 343.9688,468.5625 Q343.2813,467.4844 343.2813,466.2031 L343.2813,465.0469 Q343.2813,463.7188 343.8906,462.5781 Q344.5156,461.4219 345.6094,460.8125 Q346.7031,460.1875 347.9375,460.1875 Q348.6719,460.1875 349.3125,460.3594 Q349.9688,460.5156 350.5156,460.875 Z " fill="#000000"/><text fill="#000000" font-family="sans-serif" font-size="14" lengthAdjust="spacing" textLength="30" x="368.25" y="470.7285">Main</text><line style="stroke:#181818;stroke-width:0.5;" x1="295.5" x2="438.5" y1="481" y2="481"/><line style="stroke:#181818;stroke-width:0.5;" x1="295.5" x2="438.5" y1="489" y2="489"/><ellipse cx="305.5" cy="503.3047" fill="#84BE84" rx="3" ry="3" style="stroke:#038048;stroke-width:1.0;"/><text fill="#000000" font-family="sans-serif" font-size="14" lengthAdjust="spacing" text-decoration="underline" textLength="119" x="314.5" y="507.5332">main(String[]): void</text></g></a><text fill="#888888" font-family="sans-serif" font-size="10" lengthAdjust="spacing" textLength="184" x="132.5" y="547.3809">UMLDoclet 2.1.0, PlantUML 1.2022.14</text><!--SRC=[hLEzJiCm4Dxx5BSW9Kg9WB5RLQQAq8gAASfmTOx6oB53RBfKVIYUWHV3STAMfavPyE1Jxllkkv-S0G0abgGhP0IVAEAYv1fsen5qXmdK6gPL1MbgxxWmfSWoou1VPwSD6ixs49N8PR0oDPURD0idi5KyFrBtVTcPOWLPOMVzqhSbrWmdq6hs89MJK7uClxyimgKvTrSrCUu18bT24FgShVmO3jR6kgj7tf19cbg3q5jHf0zu2_Q7SzHmJLqJQGdNLQQs_KRZea_TOKtz0x5BDwEXw0uTYgSFkqKwMApVYJMCjLA2K9wJ2jJ5pBRXpM5Ksvfd11SBDDTAlX3cLDijEdtyjQM2g7R_LizNY-VJA9qlpORp9NQzRQR6_CTBw0mZQMm7RqervZLvUbHCa867-3w-6yDIe3JM2pTRgZLNCWX_0000]--></g></svg>